<svg xmlns="http://www.w3.org/2000/svg" fill="none" viewBox="0 0 40 40">
    <rect width="32" height="32" x="3" y="2" fill="#fff" rx="8"/>
    <rect width="32" height="32" x="3" y="2" rx="8"/>
    <rect width="32" height="32" x="3" y="2" stroke="#D0D5DD" stroke-width=".2" rx="8"/>
    <path stroke="#155EEF" stroke-width="6"
          d="M19 7.41c6.057 0 11 4.946 11 11.09s-4.943 11.09-11 11.09S8 24.645 8 18.5 12.943 7.41 19 7.41Z"/>
    <path fill="#fff" fill-opacity=".2"
          d="M3 18h32v3.2c0 4.48 0 6.72-.872 8.432a8 8 0 0 1-3.496 3.496C28.92 34 26.68 34 22.2 34h-6.4c-4.48 0-6.72 0-8.432-.872a8 8 0 0 1-3.496-3.496C3 27.92 3 25.68 3 21.2V18Z"
    />
</svg>