<svg xmlns="http://www.w3.org/2000/svg" fill="none" viewBox="0 0 145 38">

    <rect width="31.8" height="31.8" x="3.1" y="2.1" fill="#fff" rx="7.9"/>
    <rect width="31.8" height="31.8" x="3.1" y="2.1" rx="7.9"/>
    <rect width="31.8" height="31.8" x="3.1" y="2.1" stroke="#D0D5DD" stroke-width=".2" rx="7.9"/>
    <path stroke="#155EEF" stroke-width="6"
          d="M19 7.41c6.057 0 11 4.946 11 11.09s-4.943 11.09-11 11.09S8 24.645 8 18.5 12.943 7.41 19 7.41Z"/>

    <path fill="#fff" fill-opacity=".2"
          d="M3 18h32v3.2c0 4.48 0 6.72-.872 8.432a8 8 0 0 1-3.496 3.496C28.92 34 26.68 34 22.2 34h-6.4c-4.48 0-6.72 0-8.432-.872a8 8 0 0 1-3.496-3.496C3 27.92 3 25.68 3 21.2V18Z"
    />

    <!-- Text -->
    <path fill="#000"
          d="M44.517 26V8.545h6.989c1.284 0 2.355.19 3.213.571.858.381 1.503.91 1.934 1.586.432.67.648 1.443.648 2.318 0 .682-.136 1.281-.409 1.798a3.53 3.53 0 0 1-1.125 1.261 4.608 4.608 0 0 1-1.62.69v.171a3.909 3.909 0 0 1 1.867.563c.585.346 1.06.832 1.423 1.457.364.62.546 1.358.546 2.216 0 .926-.23 1.753-.69 2.48-.455.722-1.128 1.293-2.02 1.713-.892.42-1.992.631-3.299.631h-7.457Zm3.69-3.017h3.009c1.028 0 1.778-.196 2.25-.588.471-.398.707-.926.707-1.585 0-.483-.116-.91-.35-1.279a2.374 2.374 0 0 0-.996-.87c-.426-.21-.935-.315-1.526-.315h-3.094v4.637Zm0-7.134h2.736c.506 0 .955-.088 1.347-.264a2.24 2.24 0 0 0 .937-.767c.233-.33.35-.724.35-1.184 0-.631-.225-1.14-.674-1.526-.443-.386-1.073-.58-1.892-.58h-2.804v4.321ZM60.316 26V12.909h3.52v2.284h.136c.239-.812.64-1.426 1.202-1.84a3.16 3.16 0 0 1 1.943-.631c.182 0 .378.01.588.034.21.022.395.054.554.093v3.222a4.735 4.735 0 0 0-.707-.136 6.349 6.349 0 0 0-.827-.06c-.534 0-1.011.116-1.432.35a2.573 2.573 0 0 0-.988.954c-.239.409-.358.88-.358 1.415V26h-3.631ZM75.493 26.256c-1.347 0-2.506-.273-3.477-.819a5.604 5.604 0 0 1-2.233-2.335c-.523-1.011-.784-2.207-.784-3.588 0-1.346.26-2.528.784-3.545a5.795 5.795 0 0 1 2.207-2.378c.955-.568 2.074-.852 3.358-.852.864 0 1.668.139 2.412.417.75.273 1.403.685 1.96 1.236.563.551 1 1.244 1.313 2.08.312.83.468 1.8.468 2.914v.998H70.447v-2.25h7.637c0-.523-.114-.986-.341-1.39a2.442 2.442 0 0 0-.946-.946c-.398-.233-.86-.35-1.39-.35-.55 0-1.04.129-1.465.384-.42.25-.75.588-.989 1.014-.239.421-.36.89-.366 1.407v2.139c0 .648.119 1.207.358 1.679a2.62 2.62 0 0 0 1.03 1.09c.444.257.97.384 1.578.384.403 0 .772-.056 1.108-.17a2.3 2.3 0 0 0 .86-.511c.239-.228.42-.506.546-.836l3.358.222a4.585 4.585 0 0 1-1.049 2.114c-.522.596-1.198 1.062-2.028 1.397-.824.33-1.776.495-2.855.495ZM87.501 8.545V26h-3.63V8.545h3.63ZM94.04 8.545V26h-3.63V8.545h3.63ZM102.864 26.256c-1.324 0-2.469-.282-3.435-.844a5.775 5.775 0 0 1-2.225-2.37c-.522-1.017-.783-2.196-.783-3.536 0-1.353.26-2.535.783-3.546a5.706 5.706 0 0 1 2.225-2.37c.966-.567 2.111-.851 3.435-.851 1.324 0 2.466.284 3.426.852a5.69 5.69 0 0 1 2.233 2.37c.522 1.01.784 2.192.784 3.545 0 1.34-.262 2.52-.784 3.537a5.759 5.759 0 0 1-2.233 2.369c-.96.562-2.102.844-3.426.844Zm.017-2.813c.602 0 1.105-.17 1.508-.511.404-.347.708-.818.912-1.415.21-.597.315-1.276.315-2.037 0-.761-.105-1.44-.315-2.037-.204-.597-.508-1.068-.912-1.415-.403-.346-.906-.52-1.508-.52-.608 0-1.12.174-1.534.52-.409.347-.719.819-.929 1.415-.205.597-.307 1.276-.307 2.037 0 .761.102 1.44.307 2.037.21.597.52 1.068.929 1.415.414.34.926.511 1.534.511Z"/>

</svg>